<?xml version="1.0" encoding="UTF-8"?>
<svg version="1.1" xmlns="http://www.w3.org/2000/svg" width="400" height="400">
<path d="M0 0 C6.20891418 6.54453116 8.23496248 14.24248632 8.3671875 23.1015625 C6.0467973 74.25103338 -26.58079412 121.54773129 -58.25634766 159.70214844 C-59.52388163 161.23910365 -60.76949207 162.79408166 -62.01171875 164.3515625 C-71.36259477 176.07040527 -81.89093397 186.73167958 -92.43911743 197.36434937 C-93.83149868 198.76862701 -95.21989286 200.17685447 -96.6081543 201.58520508 C-102.65602593 207.6407761 -108.99503067 213.11016123 -115.6875 218.4375 C-116.91975397 219.46113862 -118.1493521 220.48799206 -119.375 221.51953125 C-133.52278843 233.26074793 -148.99887159 242.75612297 -165.6875 250.4375 C-166.29964355 250.72351074 -166.91178711 251.00952148 -167.54248047 251.30419922 C-181.17362402 257.62657475 -196.22027645 262.52217387 -211.33984375 258.78125 C-216.95626607 256.28027115 -221.21972788 251.57319498 -223.8046875 246.05078125 C-231.13504072 224.35163831 -218.98435328 197.78242145 -209.6875 178.4375 C-209.25195801 177.51300049 -209.25195801 177.51300049 -208.80761719 176.56982422 C-204.24448862 166.90935999 -199.0500715 157.59117998 -193.875 148.25 C-171.5218048 111.06994314 -171.5218048 111.06994314 -168.9375 69.0234375 C-171.20628925 61.20084123 -174.7274338 54.88075655 -181.6875 50.4375 C-188.30421039 47.34031641 -194.36308501 47.79954442 -201.125 50 C-206.8235238 52.24320343 -211.15188079 55.37050565 -215.6875 59.4375 C-216.70457031 60.31535156 -216.70457031 60.31535156 -217.7421875 61.2109375 C-235.30889541 77.41058643 -242.92864267 103.70504467 -243.91015625 126.90625 C-244.30229748 141.81069227 -242.11037045 156.19648449 -237.6875 170.4375 C-245.53144448 164.4144712 -247.24784977 147.8609112 -248.5625 138.6875 C-252.77198781 106.40600855 -245.47688752 73.08480705 -225.75390625 46.8671875 C-223.77795564 44.34813935 -221.7499023 41.88610505 -219.6875 39.4375 C-219.06101562 38.67566406 -218.43453125 37.91382813 -217.7890625 37.12890625 C-212.68153744 31.11453491 -206.94209464 26.22769026 -200.6875 21.4375 C-199.90761719 20.83035156 -199.12773437 20.22320312 -198.32421875 19.59765625 C-171.60129645 -0.20874499 -136.47586605 -6.54561242 -103.921875 -1.87890625 C-92.23214775 0.23814928 -80.45679536 4.23691444 -70 9.875 C-66.19717032 11.66878759 -65.57722664 11.6431516 -61.6875 10.4375 C-59.00016159 9.13072318 -56.41389696 7.65630191 -53.8125 6.1875 C-37.54082866 -2.72170408 -17.29342117 -10.05431463 0 0 Z M-54.6875 17.4375 C-53.18075404 21.22975949 -51.02051269 22.9826729 -47.8125 25.4375 C-38.00894718 33.27262293 -29.40011504 41.75404227 -22.6875 52.4375 C-15.87314242 42.21596364 -12.40144179 28.67453869 -13.6875 16.4375 C-15.14384502 13.10871138 -16.95974411 10.80889823 -19.6875 8.4375 C-31.65571228 4.49796346 -44.25951315 12.30090729 -54.6875 17.4375 Z " fill="#004F9E" transform="translate(320.6875,38.5625)"/>
<path d="M0 0 C7.31128383 10.96692575 2.87376157 31.91748091 0.57568359 44.28320312 C-4.31904884 68.17234376 -16.27022708 88.5028063 -33 106 C-33.60972656 106.67289062 -34.21945312 107.34578125 -34.84765625 108.0390625 C-57.02307674 131.67401173 -89.47281596 141.88092003 -121 143 C-121 142.34 -121 141.68 -121 141 C-119.9584375 140.47792969 -118.916875 139.95585937 -117.84375 139.41796875 C-103.47036486 132.08674785 -90.35068115 123.39957662 -78 113 C-77.47728516 112.56606934 -76.95457031 112.13213867 -76.41601562 111.68505859 C-65.03865102 102.23094861 -54.41743315 92.38234812 -45.20703125 80.765625 C-42.89238262 77.86514495 -40.48139073 75.06388844 -38.0625 72.25 C-20.50938817 51.1645282 -8.05813552 26.09737071 0 0 Z " fill="#004F9E" transform="translate(316,140)"/>
<path d="M0 0 C13 0 13 0 16.75 3.375 C17.84570074 4.90790153 18.92825885 6.45025224 20 8 C21.43628526 9.64451992 22.8959247 11.26885637 24.375 12.875 C25.12523437 13.70644531 25.87546875 14.53789062 26.6484375 15.39453125 C27.42445313 16.25433594 28.20046875 17.11414063 29 18 C31.41702738 20.68847815 33.83362087 23.37734545 36.25 26.06640625 C37.14940606 27.06016964 38.05224029 28.05224029 39 29 C39.33 19.43 39.66 9.86 40 0 C42.97 0 45.94 0 49 0 C49 14.52 49 29.04 49 44 C38 44 38 44 33.890625 40.78125 C32.64590937 39.38127385 31.43245215 37.95294774 30.25 36.5 C29.64285156 35.80390625 29.03570312 35.1078125 28.41015625 34.390625 C27.188822 32.98439794 25.98102768 31.56629595 24.78710938 30.13671875 C22.49358284 27.39451326 20.13027578 24.71709136 17.76464844 22.03710938 C15.4719221 19.3903871 13.24171817 16.6900618 11 14 C10.67 23.9 10.34 33.8 10 44 C6.7 44 3.4 44 0 44 C0 29.48 0 14.96 0 0 Z " fill="#004F9E" transform="translate(143,322)"/>
<path d="M0 0 C6.001875 -0.061875 12.00375 -0.12375 18.1875 -0.1875 C21.01671021 -0.22846802 21.01671021 -0.22846802 23.90307617 -0.27026367 C25.40803386 -0.27903042 26.91299869 -0.28667391 28.41796875 -0.29296875 C29.57794373 -0.3159906 29.57794373 -0.3159906 30.76135254 -0.33947754 C36.8394538 -0.34241335 39.95911988 1.01581099 44.25 5.1875 C46.45226339 8.72685188 47.19561947 11.88416631 47 16 C45.44240269 21.19199102 43.58972091 24.08944527 39 27 C35.69402952 28.09734105 32.60768586 28.11534534 29.140625 28.09765625 C28.02558594 28.09443359 26.91054687 28.09121094 25.76171875 28.08789062 C24.60285156 28.07951172 23.44398438 28.07113281 22.25 28.0625 C21.07566406 28.05798828 19.90132812 28.05347656 18.69140625 28.04882812 C15.79424905 28.03705106 12.89711807 28.01911588 10 28 C10 33.28 10 38.56 10 44 C6.7 44 3.4 44 0 44 C0 29.48 0 14.96 0 0 Z M10 8 C10 11.63 10 15.26 10 19 C13.77125953 19.08074862 17.54079993 19.1403818 21.3125 19.1875 C22.9202832 19.22520508 22.9202832 19.22520508 24.56054688 19.26367188 C25.58857422 19.27333984 26.61660156 19.28300781 27.67578125 19.29296875 C28.62364502 19.3086792 29.57150879 19.32438965 30.5480957 19.34057617 C33.04398792 19.19661826 33.04398792 19.19661826 34.80541992 17.63793945 C36.19100915 15.99106079 36.19100915 15.99106079 36.4375 13.5 C36.23693175 10.90548891 36.23693175 10.90548891 34.29785156 9.36206055 C31.55221126 7.73457146 29.96803592 7.6517203 26.796875 7.70703125 C25.8171875 7.71669922 24.8375 7.72636719 23.828125 7.73632812 C22.81234375 7.76146484 21.7965625 7.78660156 20.75 7.8125 C19.203125 7.83280273 19.203125 7.83280273 17.625 7.85351562 C15.08310951 7.88881966 12.5414881 7.94262527 10 8 Z " fill="#004F9E" transform="translate(224,322)"/>
<path d="M0 0 C3.63 0 7.26 0 11 0 C13.14132334 4.23328993 15.2774277 8.4691561 17.40869141 12.70751953 C18.13479257 14.14965065 18.86232665 15.59106122 19.59130859 17.03173828 C20.63754818 19.10001872 21.67864446 21.170817 22.71875 23.2421875 C23.21091003 24.21102371 23.21091003 24.21102371 23.7130127 25.19943237 C26 29.77225659 26 29.77225659 26 32 C26.66 32 27.32 32 28 32 C28.26804443 31.13415283 28.53608887 30.26830566 28.81225586 29.3762207 C29.9793883 26.05858975 31.3757919 23.09478731 33.00390625 19.98046875 C33.57947266 18.87638672 34.15503906 17.77230469 34.74804688 16.63476562 C35.34681641 15.49716797 35.94558594 14.35957031 36.5625 13.1875 C37.16513672 12.03056641 37.76777344 10.87363281 38.38867188 9.68164062 C42.85498768 1.14501232 42.85498768 1.14501232 44 0 C45.68608966 -0.07205511 47.37500659 -0.08386068 49.0625 -0.0625 C49.98160156 -0.05347656 50.90070313 -0.04445313 51.84765625 -0.03515625 C52.55792969 -0.02355469 53.26820312 -0.01195312 54 0 C52.45143962 5.21623064 50.17776077 9.83642883 47.68359375 14.64453125 C47.05880882 15.86011971 47.05880882 15.86011971 46.42140198 17.1002655 C45.54508257 18.80315604 44.66670244 20.50498753 43.78637695 22.20581055 C42.4341395 24.81899413 41.08863763 27.43556126 39.74414062 30.05273438 C38.89101559 31.70853464 38.0375133 33.36414059 37.18359375 35.01953125 C36.77942734 35.80487747 36.37526093 36.59022369 35.95884705 37.39936829 C33.11633667 42.88366333 33.11633667 42.88366333 32 44 C30.31391034 44.07205511 28.62499341 44.08386068 26.9375 44.0625 C26.01839844 44.05347656 25.09929687 44.04445313 24.15234375 44.03515625 C23.44207031 44.02355469 22.73179688 44.01195312 22 44 C15.90980513 33.00547938 9.89133472 21.98294779 4.25 10.75 C3.82025879 9.89954102 3.39051758 9.04908203 2.94775391 8.17285156 C2.55765137 7.3887793 2.16754883 6.60470703 1.765625 5.796875 C1.42305664 5.10948242 1.08048828 4.42208984 0.72753906 3.71386719 C0 2 0 2 0 0 Z " fill="#004F9E" transform="translate(68,322)"/>
<path d="M0 0 C15.18 0 30.36 0 46 0 C46 2.64 46 5.28 46 8 C40.06 8 34.12 8 28 8 C28 19.88 28 31.76 28 44 C24.7 44 21.4 44 18 44 C18 32.12 18 20.24 18 8 C12.06 8 6.12 8 0 8 C0 5.36 0 2.72 0 0 Z " fill="#004F9E" transform="translate(286,322)"/>
</svg>
